<?xml version="1.0" encoding="iso-8859-1"?>
<!-- Generator: Adobe Illustrator 18.1.1, SVG Export Plug-In . SVG Version: 6.00 Build 0)  -->
<svg version="1.1" id="Capa_1" xmlns="http://www.w3.org/2000/svg" xmlns:xlink="http://www.w3.org/1999/xlink" x="0px" y="0px"
	 viewBox="0 0 76 76" style="enable-background:new 0 0 76 76;" xml:space="preserve">
<g id="_x37_7_Essential_Icons_48_">
	<path id="Plus" d="M60,38c0,1.1-0.9,2-2,2H40v18c0,1.1-0.9,2-2,2s-2-0.9-2-2V40H18c-1.1,0-2-0.9-2-2s0.9-2,2-2h18V18
		c0-1.1,0.9-2,2-2s2,0.9,2,2v18h18C59.1,36,60,36.9,60,38z M76,38c0,21-17,38-38,38S0,59,0,38S17,0,38,0S76,17,76,38z M72,38
		C72,19.2,56.8,4,38,4S4,19.2,4,38s15.2,34,34,34S72,56.8,72,38z"/>
</g>
<g>
</g>
<g>
</g>
<g>
</g>
<g>
</g>
<g>
</g>
<g>
</g>
<g>
</g>
<g>
</g>
<g>
</g>
<g>
</g>
<g>
</g>
<g>
</g>
<g>
</g>
<g>
</g>
<g>
</g>
</svg>
