<?xml version="1.0" standalone="no"?>
<!DOCTYPE svg PUBLIC "-//W3C//DTD SVG 20010904//EN"
 "http://www.w3.org/TR/2001/REC-SVG-20010904/DTD/svg10.dtd">
<svg version="1.0" xmlns="http://www.w3.org/2000/svg"
 width="1280.000000pt" height="1280.000000pt" viewBox="0 0 1280.000000 1280.000000"
 preserveAspectRatio="xMidYMid meet">
<g transform="translate(0.000000,1280.000000) scale(0.100000,-0.100000)"
fill="#000000" stroke="none">
<path d="M1540 12781 c-120 -38 -183 -89 -221 -179 -15 -35 -23 -43 -37 -37
-103 45 -196 38 -256 -19 -106 -100 -15 -290 214 -443 93 -62 422 -223 456
-223 5 0 -39 28 -96 63 -223 132 -362 253 -415 360 -23 49 -27 66 -23 118 4
54 3 59 -10 43 -13 -19 -12 -65 4 -123 10 -36 -15 -17 -32 25 -30 71 -12 154
37 180 36 18 63 18 99 -1 31 -16 36 -27 44 -115 8 -78 71 -199 147 -283 251
-277 777 -515 1329 -602 164 -26 490 -31 625 -10 250 39 449 137 524 258 67
109 32 250 -78 315 -58 34 -136 37 -178 6 -57 -42 -35 -144 31 -144 27 0 57
34 49 56 -8 22 22 27 56 10 68 -36 86 -148 38 -241 -92 -183 -377 -276 -746
-246 -157 13 -379 50 -451 76 -70 25 -127 62 -149 99 -26 42 -26 61 -1 86 30
30 50 26 50 -10 0 -40 32 -58 66 -35 48 31 19 103 -48 119 -39 9 -106 -20
-124 -55 -20 -40 -10 -71 39 -119 36 -35 39 -40 20 -40 -39 0 -201 89 -251
138 -80 78 -109 171 -79 245 27 63 90 70 135 13 25 -32 36 -32 67 -1 33 32 32
75 -1 115 -53 63 -131 78 -211 39 -87 -42 -115 -145 -73 -267 20 -57 37 -78
140 -165 44 -37 44 -38 15 -32 -47 9 -322 150 -405 208 -88 61 -110 95 -86
133 37 55 109 23 234 -106 54 -55 101 -100 104 -100 4 0 -6 25 -23 56 -46 88
-42 157 17 294 25 60 45 113 43 119 -2 5 -35 -13 -74 -42 -85 -63 -119 -119
-112 -185 3 -23 1 -45 -4 -48 -5 -3 -24 7 -42 22 -60 50 -149 70 -198 43 -15
-8 -25 -7 -37 2 -14 11 -15 11 -4 -1 16 -19 15 -30 -2 -30 -20 0 -92 85 -139
162 -128 211 -90 422 85 468 82 23 163 -21 175 -92 7 -44 -16 -61 -46 -34 -27
24 -78 20 -106 -9 -84 -83 73 -174 201 -116 52 24 74 55 74 106 0 78 -59 138
-172 174 -79 25 -114 25 -188 2z"/>
<path d="M5735 12781 c-88 -39 -133 -133 -106 -221 19 -63 79 -96 136 -74 21
9 45 56 45 92 0 49 -52 80 -80 47 -21 -25 -30 -17 -30 26 0 51 13 75 51 94 67
35 136 -22 165 -134 28 -112 -6 -275 -90 -424 -20 -37 -39 -67 -41 -67 -3 0
-14 9 -25 20 -33 33 -74 26 -125 -21 l-45 -42 0 54 c0 30 -4 70 -10 89 -9 34
-97 146 -107 136 -3 -2 8 -47 23 -98 23 -73 29 -112 29 -183 0 -53 -5 -98 -13
-110 -10 -16 -11 -7 -6 50 8 90 -8 149 -51 192 -57 57 -119 40 -150 -42 -19
-48 -15 -84 11 -110 15 -15 18 -14 36 15 23 39 65 39 86 0 21 -41 10 -149 -24
-217 -41 -86 -160 -194 -197 -180 -7 2 -27 -7 -46 -21 -114 -85 -438 -130
-594 -82 -122 38 -209 121 -242 233 -30 100 -13 211 35 237 18 10 24 9 31 -1
4 -7 6 -17 3 -21 -8 -13 16 -48 32 -48 21 0 47 67 39 99 -9 36 -44 71 -71 71
-13 0 -40 -15 -60 -32 -128 -112 -97 -350 61 -469 145 -110 365 -146 598 -98
130 26 198 49 325 109 409 195 682 517 682 807 0 51 12 78 41 93 46 25 89 -24
89 -102 0 -48 -73 -220 -130 -304 -18 -27 -83 -98 -144 -158 -118 -115 -104
-115 51 1 260 195 381 479 249 585 -26 22 -94 23 -123 3 -26 -18 -34 -10 -56
59 -24 70 -59 111 -121 140 -64 30 -77 31 -131 7z m-27 -673 c7 -7 12 -27 12
-46 0 -28 -11 -45 -67 -104 -96 -98 -273 -229 -273 -200 0 5 31 45 68 88 38
43 94 118 124 166 68 104 103 129 136 96z"/>
<path d="M6933 12774 c-59 -28 -98 -74 -120 -142 -23 -70 -27 -72 -73 -49 -37
18 -44 18 -78 6 -28 -11 -43 -26 -59 -59 -84 -164 85 -431 387 -614 39 -23 33
-16 -42 56 -121 116 -172 184 -234 313 -42 87 -54 122 -54 159 0 90 47 137 99
99 23 -18 27 -29 33 -102 15 -178 101 -343 264 -506 306 -306 799 -479 1126
-396 99 26 163 59 230 120 93 85 136 197 118 308 -20 122 -107 202 -169 155
-36 -27 -46 -69 -27 -115 23 -57 46 -49 70 26 5 15 9 16 27 7 34 -19 51 -75
47 -155 -9 -177 -138 -305 -337 -336 -145 -22 -412 31 -507 101 -23 16 -48 28
-56 25 -22 -9 -130 76 -166 131 -79 118 -84 284 -10 292 22 3 32 -3 46 -28 18
-29 21 -30 36 -15 26 26 30 62 11 110 -59 157 -221 48 -201 -137 3 -32 8 -71
11 -86 l6 -27 -18 30 c-29 49 -24 198 10 309 15 49 25 92 22 95 -9 8 -66 -53
-87 -94 -13 -24 -23 -68 -26 -108 l-5 -67 -43 40 c-51 47 -91 53 -126 18 -21
-21 -21 -21 -35 -2 -31 41 -84 156 -103 226 -13 48 -20 103 -20 164 0 79 3 97
28 145 34 68 85 98 133 79 41 -17 59 -47 59 -97 0 -45 -9 -53 -30 -28 -31 37
-80 -1 -80 -63 0 -44 38 -82 82 -82 85 0 133 102 93 198 -21 48 -51 79 -99
103 -51 25 -70 24 -133 -7z m222 -670 c13 -9 47 -52 76 -97 28 -45 60 -91 70
-102 94 -105 129 -150 119 -153 -21 -7 -152 90 -248 183 -82 80 -92 94 -92
126 0 57 29 73 75 43z"/>
<path d="M11070 12779 c-79 -26 -134 -63 -155 -106 -33 -68 -8 -145 58 -176
68 -33 176 -15 211 34 22 33 20 56 -9 84 -28 29 -74 33 -110 9 -13 -9 -29 -13
-35 -9 -19 12 -10 63 16 94 52 62 162 62 236 1 132 -109 93 -349 -90 -552 -33
-36 -69 -52 -59 -25 3 7 -3 14 -12 15 -9 1 -33 4 -54 8 -56 9 -102 -3 -152
-41 -58 -45 -67 -44 -59 3 10 61 -11 114 -61 161 -24 22 -48 41 -53 41 -4 0
-23 14 -41 31 l-34 30 7 -32 c3 -17 23 -68 43 -113 34 -72 38 -90 38 -161 0
-68 -4 -88 -28 -132 -15 -29 -24 -53 -19 -53 5 0 52 45 104 99 53 55 111 107
128 116 45 23 91 16 109 -17 14 -25 14 -29 -5 -55 -12 -15 -52 -49 -90 -76
-78 -54 -354 -194 -399 -202 l-30 -6 40 33 c124 102 165 171 165 276 0 69 -23
117 -71 149 -76 50 -173 40 -229 -23 -38 -43 -40 -85 -5 -119 31 -31 42 -31
67 1 42 53 104 51 133 -5 47 -92 -21 -228 -159 -316 -64 -40 -142 -75 -169
-75 -19 0 -17 4 15 38 47 48 60 76 52 107 -16 63 -130 91 -180 44 -33 -31 -32
-73 2 -96 33 -22 58 -8 62 36 4 36 23 40 52 11 26 -26 25 -49 -2 -91 -48 -72
-191 -119 -472 -155 -176 -22 -447 -15 -557 14 -212 57 -339 178 -339 324 0
70 19 112 61 134 38 19 57 13 61 -22 7 -59 79 -58 104 1 18 44 6 78 -38 105
-61 37 -138 20 -209 -47 -63 -59 -88 -130 -70 -206 68 -298 665 -428 1337
-292 437 89 920 313 1140 530 118 116 184 242 184 350 0 64 19 90 74 100 65
13 116 -36 116 -110 0 -40 -28 -115 -42 -115 -6 0 -7 8 -4 17 16 40 17 98 4
117 -13 16 -14 11 -10 -42 6 -83 -25 -148 -118 -245 -77 -82 -188 -163 -345
-251 -55 -31 -96 -56 -92 -56 5 0 47 16 95 36 148 61 333 161 425 230 221 166
283 360 138 434 -49 24 -145 27 -198 5 -19 -8 -37 -15 -39 -15 -2 0 -15 25
-29 55 -36 74 -101 130 -184 156 -96 30 -146 31 -221 8z"/>
<path d="M1598 12363 c-20 -23 -27 -62 -18 -93 8 -24 8 -23 9 8 1 34 31 72 56
72 21 0 30 -27 15 -45 -6 -8 -9 -19 -5 -25 8 -14 48 -13 63 2 18 18 14 63 -6
81 -25 23 -94 22 -114 0z"/>
<path d="M5747 12362 c-21 -22 -22 -52 -4 -77 21 -28 39 -10 31 31 -7 38 7 45
38 17 22 -20 24 -6 2 25 -18 27 -45 28 -67 4z"/>
<path d="M6982 12355 c-17 -36 -15 -38 12 -20 28 19 40 8 30 -28 -7 -32 14
-47 33 -22 29 40 5 95 -41 95 -15 0 -27 -9 -34 -25z"/>
<path d="M11087 12362 c-34 -37 -16 -92 29 -92 29 0 39 16 24 35 -7 8 -10 22
-6 30 15 40 75 -5 77 -57 l1 -33 9 30 c10 34 4 62 -19 88 -21 24 -93 23 -115
-1z"/>
<path d="M3810 12281 c-16 -31 -12 -37 11 -13 21 23 39 21 39 -4 0 -8 6 -14
13 -14 21 0 27 11 16 31 -13 26 -65 25 -79 0z"/>
<path d="M4316 12283 c-4 -9 -2 -21 4 -27 7 -7 10 -5 10 7 0 9 7 17 16 17 8 0
12 5 9 10 -10 16 -32 12 -39 -7z"/>
<path d="M8445 12290 c-3 -5 1 -10 9 -10 9 0 16 -7 16 -15 0 -8 5 -15 10 -15
11 0 13 11 4 34 -7 18 -30 21 -39 6z"/>
<path d="M8917 12293 c-13 -12 -7 -43 8 -43 8 0 15 6 15 14 0 25 18 28 40 6
22 -22 25 -19 10 11 -10 19 -59 27 -73 12z"/>
<path d="M917 12268 c32 -36 75 -116 65 -122 -5 -3 -37 6 -71 20 -71 29 -172
42 -252 34 l-54 -5 0 -120 c1 -107 3 -127 27 -184 15 -36 25 -68 22 -73 -8
-12 -93 37 -123 70 -17 19 -23 21 -18 9 4 -10 7 -22 7 -27 0 -4 43 -66 95
-136 52 -71 114 -162 137 -202 24 -39 44 -68 46 -63 2 5 -27 89 -63 186 -76
205 -92 267 -101 390 -10 132 5 140 192 114 81 -11 119 -22 299 -87 61 -22
126 -43 145 -47 31 -6 26 0 -40 43 -41 27 -120 84 -175 126 -55 41 -113 80
-129 86 l-30 10 21 -22z"/>
<path d="M11865 12276 c-16 -8 -81 -52 -144 -99 -63 -47 -147 -105 -188 -129
-40 -23 -69 -44 -64 -46 5 -2 89 27 186 63 205 76 267 92 390 101 132 10 138
0 115 -184 -11 -87 -20 -118 -94 -325 -25 -71 -46 -135 -46 -143 0 -8 32 32
71 88 38 57 94 134 124 173 30 38 59 83 65 99 l10 30 -22 -21 c-36 -32 -116
-75 -122 -65 -3 5 7 37 22 73 24 57 26 77 27 184 l0 120 -54 5 c-80 8 -181 -5
-252 -34 -34 -14 -66 -23 -71 -20 -11 7 37 92 69 122 27 25 21 27 -22 8z"/>
<path d="M6180 12198 c-40 -46 -96 -104 -124 -130 -28 -26 -46 -48 -41 -48 6
0 46 19 90 42 44 23 100 52 125 65 122 63 262 52 399 -31 31 -19 79 -44 106
-56 l50 -21 -56 58 c-30 32 -84 91 -118 131 -35 39 -67 72 -71 72 -5 0 1 -18
11 -40 21 -44 35 -100 25 -100 -4 0 -25 12 -48 28 -37 24 -50 27 -128 27 -78
0 -91 -3 -128 -27 -23 -16 -44 -28 -48 -28 -10 0 4 56 25 100 10 22 16 40 12
40 -5 0 -41 -37 -81 -82z"/>
<path d="M3810 12212 c0 -6 -29 -10 -69 -10 -110 0 -187 -53 -212 -145 -21
-78 18 -179 81 -212 63 -33 159 -8 160 42 0 9 -14 10 -48 6 -157 -18 -214 192
-69 257 77 36 198 18 259 -37 10 -9 18 -11 18 -6 0 6 -27 34 -60 63 -33 29
-60 47 -60 42z"/>
<path d="M8925 12165 c-33 -30 -57 -54 -54 -55 4 0 27 12 52 26 91 50 212 41
274 -21 28 -28 33 -40 33 -80 0 -93 -63 -152 -152 -142 -34 4 -48 3 -48 -6 1
-33 42 -57 98 -57 108 0 183 137 137 248 -35 82 -105 125 -205 124 -36 0 -67
4 -70 8 -3 5 -32 -16 -65 -45z"/>
<path d="M4329 12173 c-16 -19 -29 -36 -29 -38 0 -3 17 4 37 15 47 25 89 25
130 0 53 -32 73 -96 53 -170 -17 -61 -52 -94 -96 -87 -38 6 -44 -5 -18 -41 18
-26 65 -30 89 -6 37 37 50 78 50 159 0 129 -45 193 -140 199 -41 2 -49 -1 -76
-31z"/>
<path d="M8383 12200 c-66 -7 -98 -36 -120 -109 -26 -92 3 -236 52 -255 32
-12 64 -6 79 16 26 36 20 47 -18 41 -110 -18 -141 208 -36 262 40 21 78 19
124 -6 l38 -20 -20 29 c-32 44 -43 48 -99 42z"/>
<path d="M11159 12173 c-13 -16 -12 -17 4 -4 16 13 21 21 13 21 -2 0 -10 -8
-17 -17z"/>
<path d="M784 11914 c12 -198 47 -390 103 -574 14 -46 76 -210 138 -365 211
-526 278 -770 306 -1123 31 -386 -65 -813 -225 -999 -50 -58 -143 -103 -213
-103 -29 0 -53 -3 -53 -7 0 -11 58 -49 103 -68 45 -19 42 -29 -15 -44 -74 -19
-74 -27 -2 -39 247 -41 387 -249 401 -597 11 -273 -46 -447 -262 -795 -228
-368 -284 -523 -285 -790 0 -265 53 -431 230 -715 193 -309 285 -520 315 -722
19 -123 19 -169 0 -276 -51 -291 -199 -472 -404 -493 -33 -4 -58 -10 -56 -14
2 -4 31 -15 64 -24 57 -16 62 -16 110 3 171 64 284 203 343 417 29 108 31 358
4 484 -41 188 -100 319 -262 582 -212 343 -264 492 -264 752 1 254 59 421 255
730 157 249 227 402 271 591 28 120 26 359 -4 480 -35 138 -83 228 -166 311
-39 39 -91 79 -116 91 -25 11 -60 26 -79 35 l-35 14 56 32 c71 41 156 132 205
219 177 318 212 923 83 1450 -41 168 -96 327 -206 594 -163 396 -218 583 -249
840 -12 105 -12 126 0 135 19 14 169 -1 325 -32 163 -34 363 -100 635 -211
428 -176 612 -230 925 -274 142 -21 516 -18 660 4 260 40 486 124 595 220 28
24 67 74 89 110 35 61 56 77 56 43 0 -7 16 -45 35 -84 67 -133 205 -233 391
-284 108 -29 358 -31 484 -4 188 41 319 100 584 264 206 127 294 173 398 208
219 73 483 72 698 -1 100 -34 200 -86 378 -196 266 -166 408 -231 597 -275
120 -28 359 -26 480 4 213 54 363 171 422 330 11 29 24 54 29 54 5 0 21 -21
35 -48 42 -76 145 -165 252 -218 395 -195 1073 -193 1658 5 67 22 226 84 353
136 288 119 485 185 646 217 140 28 304 46 322 35 15 -9 12 -83 -8 -214 -34
-223 -90 -406 -226 -735 -222 -540 -281 -780 -295 -1185 -18 -549 120 -967
365 -1107 l54 -31 -89 -43 c-153 -73 -252 -204 -305 -399 -17 -65 -21 -109
-22 -240 -1 -303 55 -464 303 -865 112 -181 150 -255 187 -363 54 -157 68
-355 39 -532 -28 -172 -80 -291 -253 -569 -222 -359 -292 -571 -279 -850 13
-292 124 -508 309 -601 39 -19 77 -35 84 -35 32 0 20 -20 -29 -48 -71 -40
-164 -142 -210 -229 -52 -100 -101 -255 -128 -408 -33 -184 -33 -561 -1 -770
44 -283 103 -479 259 -858 119 -291 185 -487 217 -647 28 -140 46 -304 35
-322 -22 -35 -397 31 -629 110 -99 34 -166 61 -420 165 -296 121 -483 178
-706 217 -463 80 -934 38 -1241 -111 -119 -57 -204 -132 -247 -217 l-26 -52
28 -62 c16 -35 36 -69 44 -76 13 -10 16 -5 21 42 13 133 100 236 259 310 189
89 373 119 713 120 252 1 333 -7 529 -50 201 -44 281 -72 736 -257 222 -89
394 -146 551 -181 124 -28 340 -56 428 -56 l54 0 -7 97 c-15 197 -62 426 -136
658 -18 55 -82 233 -142 395 -128 344 -169 464 -208 615 -57 221 -65 291 -65
545 1 217 3 245 28 361 53 250 121 412 212 504 63 64 112 88 193 93 41 3 62 8
59 16 -2 6 -32 26 -68 44 -35 19 -63 37 -62 40 1 3 25 14 54 24 29 10 54 20
56 22 2 2 -27 9 -64 15 -247 42 -386 248 -400 596 -11 270 50 458 251 779 180
288 239 415 275 593 39 189 23 420 -40 599 -40 115 -63 159 -172 334 -239 384
-321 601 -321 855 0 186 42 334 135 464 68 97 165 156 277 167 34 4 59 10 57
15 -3 4 -30 15 -60 24 -30 8 -55 19 -55 23 0 5 24 18 54 31 30 12 61 30 70 40
16 17 14 18 -40 24 -159 16 -284 150 -357 382 -52 165 -70 317 -71 585 -2 416
42 611 250 1127 214 533 270 738 291 1067 l6 106 -44 0 c-131 0 -386 -45 -595
-105 -140 -40 -233 -73 -734 -257 -288 -107 -499 -162 -713 -189 -156 -19
-443 -7 -595 25 -224 48 -391 116 -489 200 -58 50 -103 143 -103 213 0 29 -3
53 -7 53 -11 0 -49 -58 -68 -104 -19 -45 -26 -40 -50 32 -9 28 -18 52 -20 52
-2 0 -8 -30 -14 -67 -42 -247 -248 -386 -596 -400 -273 -11 -447 46 -795 262
-290 180 -441 246 -620 275 -167 26 -398 5 -556 -51 -115 -40 -159 -63 -334
-172 -410 -255 -686 -348 -945 -319 -308 35 -519 195 -542 411 -7 70 -13 69
-38 -6 -9 -29 -20 -53 -23 -53 -4 0 -22 32 -40 70 -18 39 -36 70 -41 70 -4 0
-11 -25 -14 -56 -22 -215 -241 -355 -652 -415 -121 -18 -532 -18 -650 -1 -274
42 -434 91 -888 276 -128 52 -275 108 -327 126 -215 71 -435 115 -639 127
l-114 6 7 -109z"/>
<path d="M5174 11879 c-13 -4 -27 -23 -34 -44 -10 -30 -9 -40 5 -61 13 -20 19
-23 31 -13 8 6 14 24 14 40 0 32 11 37 34 13 18 -18 20 -51 6 -90 -9 -24 -9
-25 5 -14 8 7 20 30 25 52 19 70 -31 138 -86 117z"/>
<path d="M7578 11876 c-46 -23 -54 -126 -12 -165 16 -15 16 -15 9 4 -17 42
-17 82 0 98 24 25 33 21 37 -15 4 -41 33 -50 49 -15 8 18 7 32 -4 59 -17 39
-44 51 -79 34z"/>
<path d="M283 11800 c-46 -28 -73 -86 -73 -160 0 -33 7 -77 15 -97 8 -19 15
-37 15 -39 0 -2 -25 -15 -55 -29 -80 -38 -130 -100 -160 -200 -14 -44 -25 -92
-25 -104 0 -42 42 -165 69 -203 64 -92 190 -89 234 5 33 68 15 176 -34 211
-33 22 -56 20 -84 -9 -29 -28 -33 -74 -9 -110 22 -33 9 -48 -34 -41 -103 16
-132 161 -52 258 109 132 349 93 552 -90 36 -33 52 -69 25 -59 -7 3 -14 -3
-15 -12 -1 -9 -4 -33 -8 -54 -9 -56 3 -102 42 -152 36 -48 37 -70 2 -59 -11 3
-40 3 -65 -1 -48 -7 -113 -56 -138 -104 -7 -14 -25 -39 -40 -55 l-27 -29 32 7
c18 3 69 23 114 43 115 53 191 57 281 15 36 -17 65 -27 65 -23 0 4 -43 49 -96
100 -52 51 -104 107 -114 124 -29 46 -26 93 5 113 37 24 65 8 125 -73 54 -73
206 -368 215 -418 l6 -30 -33 40 c-72 88 -125 132 -178 150 -147 49 -265 -12
-278 -145 -6 -61 10 -101 55 -140 42 -38 84 -39 118 -5 31 31 31 42 -1 67 -76
60 -32 148 73 148 44 0 112 -29 157 -66 69 -58 166 -219 166 -275 0 -19 -5
-17 -44 19 -51 47 -74 56 -109 43 -60 -23 -82 -128 -37 -176 32 -34 74 -33 97
1 22 33 8 58 -36 62 -36 4 -40 23 -11 52 26 26 49 25 91 -2 72 -48 119 -191
155 -472 22 -176 15 -447 -14 -557 -56 -209 -179 -339 -319 -339 -70 0 -118
21 -138 60 -20 39 -14 58 21 62 59 7 58 79 -2 104 -41 17 -62 13 -93 -20 -76
-80 5 -254 136 -292 66 -19 112 -13 181 27 246 140 339 701 217 1305 -88 437
-314 921 -530 1140 -115 116 -239 184 -339 184 -62 0 -85 10 -101 41 -19 35
-19 62 -1 98 28 53 107 66 185 31 52 -24 49 -36 -6 -21 -51 14 -75 14 -97 -2
-16 -12 -11 -14 42 -14 82 0 167 -42 262 -130 79 -73 140 -159 231 -321 32
-58 59 -103 59 -100 0 4 -14 42 -31 85 -53 135 -166 345 -235 436 -133 177
-285 256 -381 197z"/>
<path d="M12366 11804 c-80 -29 -182 -124 -263 -244 -63 -93 -223 -421 -223
-457 0 -4 32 46 71 112 131 219 244 346 356 401 44 22 63 26 114 22 54 -4 59
-3 43 10 -19 13 -65 12 -123 -4 -36 -10 -17 15 25 32 40 17 104 18 138 3 13
-6 32 -26 42 -44 15 -29 16 -39 5 -74 -14 -49 -27 -57 -110 -64 -242 -21 -520
-331 -705 -787 -89 -219 -152 -446 -193 -695 -26 -158 -26 -564 0 -683 77
-350 247 -541 432 -488 56 17 113 65 142 119 24 47 23 129 -3 164 -42 56 -144
35 -144 -30 0 -30 32 -60 53 -51 25 9 31 -19 13 -55 -36 -68 -149 -87 -241
-39 -212 109 -296 444 -229 908 38 263 82 388 153 436 43 29 65 30 91 4 30
-30 26 -50 -10 -50 -42 0 -62 -40 -35 -70 38 -42 104 -12 119 53 10 42 -24
110 -62 126 -26 11 -36 10 -66 -4 -19 -9 -42 -28 -51 -41 -17 -26 -35 -32 -35
-11 0 22 70 159 106 209 84 114 229 161 305 99 33 -27 29 -79 -10 -113 -37
-33 -38 -42 -6 -73 34 -34 76 -33 118 5 45 39 61 79 55 140 -6 61 -39 111 -91
141 -33 18 -50 21 -106 16 -88 -7 -151 -37 -200 -95 -22 -26 -52 -60 -66 -77
l-26 -30 5 30 c10 49 140 304 203 395 67 99 100 121 140 95 22 -15 25 -22 20
-54 -7 -53 -44 -105 -132 -184 -101 -92 -111 -112 -37 -74 52 26 64 28 132 24
60 -3 93 -12 168 -46 51 -22 99 -41 107 -41 16 0 -34 78 -83 132 -35 39 -102
62 -152 54 -49 -8 -50 0 -5 59 38 50 50 96 41 152 -4 21 -7 45 -8 54 -1 9 -8
15 -15 12 -31 -12 -9 30 37 69 170 147 362 196 485 123 132 -77 134 -280 2
-302 -43 -7 -60 16 -33 46 24 27 20 78 -9 106 -84 85 -178 -82 -115 -205 26
-51 55 -70 106 -70 79 0 139 62 174 180 24 81 25 96 4 168 -36 124 -90 194
-182 233 -35 15 -43 23 -37 37 27 61 36 126 25 170 -28 113 -113 157 -224 116z"/>
<path d="M3710 11760 c0 -17 5 -21 28 -18 16 2 27 9 27 18 0 9 -11 16 -27 18
-23 3 -28 -1 -28 -18z"/>
<path d="M4400 11760 c0 -13 5 -20 13 -17 6 2 12 10 12 17 0 7 -6 15 -12 18
-8 2 -13 -5 -13 -18z"/>
<path d="M8372 11763 c5 -25 28 -28 28 -4 0 12 -6 21 -16 21 -9 0 -14 -7 -12
-17z"/>
<path d="M9035 11770 c-10 -16 4 -30 31 -30 17 0 24 5 24 20 0 15 -7 20 -24
20 -14 0 -28 -4 -31 -10z"/>
<path d="M3655 11710 c-4 -7 -3 -16 3 -22 14 -14 45 -2 40 15 -6 16 -34 21
-43 7z"/>
<path d="M4440 11705 c0 -8 5 -15 10 -15 6 0 10 7 10 15 0 8 -4 15 -10 15 -5
0 -10 -7 -10 -15z"/>
<path d="M8340 11705 c0 -8 5 -15 10 -15 6 0 10 7 10 15 0 8 -4 15 -10 15 -5
0 -10 -7 -10 -15z"/>
<path d="M9102 11703 c4 -22 43 -25 43 -3 0 8 -11 16 -23 18 -19 3 -23 0 -20
-15z"/>
<path d="M3585 11670 c-8 -12 20 -24 35 -15 6 3 8 11 5 16 -8 12 -32 12 -40
-1z"/>
<path d="M4490 11665 c0 -8 5 -15 10 -15 6 0 10 7 10 15 0 8 -4 15 -10 15 -5
0 -10 -7 -10 -15z"/>
<path d="M8290 11665 c0 -8 5 -15 10 -15 6 0 10 7 10 15 0 8 -4 15 -10 15 -5
0 -10 -7 -10 -15z"/>
<path d="M9180 11665 c0 -10 7 -15 18 -13 21 4 19 22 -2 26 -10 2 -16 -3 -16
-13z"/>
<path d="M3517 11644 c-9 -10 2 -24 19 -24 8 0 14 7 14 15 0 15 -21 21 -33 9z"/>
<path d="M4540 11634 c0 -8 5 -12 10 -9 6 4 8 11 5 16 -9 14 -15 11 -15 -7z"/>
<path d="M8245 11641 c-3 -5 -1 -12 5 -16 5 -3 10 1 10 9 0 18 -6 21 -15 7z"/>
<path d="M9252 11638 c5 -15 28 -18 29 -3 0 6 -7 12 -17 13 -10 3 -15 -1 -12
-10z"/>
<path d="M3447 11624 c-8 -8 1 -24 14 -24 5 0 9 7 9 15 0 15 -12 20 -23 9z"/>
<path d="M9330 11615 c0 -8 7 -15 15 -15 8 0 15 7 15 15 0 8 -7 15 -15 15 -8
0 -15 -7 -15 -15z"/>
<path d="M3370 11600 c0 -5 5 -10 10 -10 6 0 10 5 10 10 0 6 -4 10 -10 10 -5
0 -10 -4 -10 -10z"/>
<path d="M9410 11600 c0 -5 5 -10 10 -10 6 0 10 5 10 10 0 6 -4 10 -10 10 -5
0 -10 -4 -10 -10z"/>
<path d="M470 11223 c-35 -13 -50 -37 -50 -78 0 -48 22 -75 61 -75 31 0 49 17
49 46 0 29 -16 39 -35 24 -18 -15 -45 -6 -45 15 0 25 38 55 73 56 30 1 31 1 7
9 -30 10 -40 10 -60 3z"/>
<path d="M12270 11220 c-24 -8 -23 -8 8 -9 34 -1 72 -31 72 -56 0 -21 -27 -30
-45 -15 -19 16 -35 4 -35 -25 0 -34 41 -60 69 -45 28 14 41 42 41 83 0 53 -52
85 -110 67z"/>
<path d="M1190 9420 c0 -5 5 -10 10 -10 6 0 10 5 10 10 0 6 -4 10 -10 10 -5 0
-10 -4 -10 -10z"/>
<path d="M11590 9420 c0 -5 5 -10 10 -10 6 0 10 5 10 10 0 6 -4 10 -10 10 -5
0 -10 -4 -10 -10z"/>
<path d="M1172 9348 c6 -18 28 -21 28 -4 0 9 -7 16 -16 16 -9 0 -14 -5 -12
-12z"/>
<path d="M11605 9349 c-10 -15 3 -25 16 -12 7 7 7 13 1 17 -6 3 -14 1 -17 -5z"/>
<path d="M1154 9276 c-8 -22 3 -33 18 -18 9 9 9 15 0 24 -9 9 -13 7 -18 -6z"/>
<path d="M11626 9283 c-12 -12 -6 -33 9 -33 8 0 15 6 15 14 0 17 -14 28 -24
19z"/>
<path d="M720 9264 c-82 -35 -124 -106 -123 -206 0 -38 -4 -68 -9 -68 -6 0 14
-27 42 -60 29 -34 54 -59 56 -57 3 2 -7 25 -22 51 -53 94 -40 224 27 281 23
19 42 25 77 25 92 0 149 -63 139 -152 -5 -37 -3 -48 8 -48 26 0 55 50 55 95 0
111 -138 188 -250 139z"/>
<path d="M11960 9271 c-51 -16 -91 -43 -110 -74 -39 -63 -16 -166 37 -167 9 0
10 14 6 48 -18 157 192 214 257 69 36 -77 18 -198 -37 -259 -9 -10 -11 -18 -6
-18 6 0 34 27 63 60 29 33 47 60 42 60 -6 0 -10 29 -10 69 0 49 -6 80 -21 108
-43 86 -136 129 -221 104z"/>
<path d="M1126 9213 c-12 -12 -6 -33 9 -33 8 0 15 6 15 14 0 17 -14 28 -24 19z"/>
<path d="M11654 9206 c-4 -10 -2 -22 4 -28 8 -8 13 -7 18 6 4 10 2 22 -4 28
-8 8 -13 7 -18 -6z"/>
<path d="M1083 9134 c-8 -21 13 -42 28 -27 13 13 5 43 -11 43 -6 0 -13 -7 -17
-16z"/>
<path d="M11683 9134 c-8 -21 13 -42 28 -27 13 13 5 43 -11 43 -6 0 -13 -7
-17 -16z"/>
<path d="M1017 9076 c-7 -19 17 -51 31 -42 20 12 15 56 -7 56 -10 0 -21 -6
-24 -14z"/>
<path d="M11742 9063 c2 -17 9 -28 18 -28 9 0 16 11 18 28 3 22 -1 27 -18 27
-17 0 -21 -5 -18 -27z"/>
<path d="M516 8987 c-26 -19 -18 -71 12 -75 15 -2 22 2 22 12 0 9 -6 16 -14
16 -25 0 -28 18 -6 40 22 22 14 27 -14 7z"/>
<path d="M12268 8979 c23 -21 21 -39 -4 -39 -8 0 -14 -6 -14 -13 0 -21 11 -27
31 -16 26 13 25 65 0 79 -31 16 -37 12 -13 -11z"/>
<path d="M821 8530 c-62 -13 -124 -53 -146 -95 -18 -33 -19 -38 -5 -63 9 -15
29 -33 45 -41 25 -12 35 -12 69 0 66 23 60 49 -17 73 -15 5 -16 9 -7 27 31 56
177 65 281 17 147 -68 232 -244 214 -443 -7 -75 -39 -225 -62 -290 -40 -114
-155 -192 -207 -139 -24 23 -20 32 16 36 42 4 50 33 13 50 -21 9 -32 8 -60 -5
-33 -16 -40 -29 -36 -67 6 -49 112 -68 161 -30 27 21 50 26 50 11 0 -5 -20
-36 -45 -69 -78 -104 -192 -160 -302 -149 -30 3 -61 11 -69 18 -25 20 -17 58
17 78 28 17 29 20 14 35 -26 26 -62 30 -110 11 -114 -43 -95 -154 33 -192 49
-14 68 -14 141 -4 99 14 105 17 179 83 34 32 57 47 60 39 7 -22 -88 -151 -183
-249 -80 -82 -94 -92 -126 -92 -59 0 -76 36 -40 82 11 13 56 46 100 73 45 27
81 53 81 58 0 5 -7 6 -16 3 -90 -34 -181 -32 -318 8 -49 14 -91 24 -94 21 -9
-9 40 -55 86 -82 31 -19 63 -27 113 -31 l69 -5 -40 -43 c-46 -50 -53 -91 -19
-125 20 -20 20 -21 2 -34 -45 -35 -156 -86 -228 -106 -109 -30 -249 -25 -315
11 -59 33 -88 87 -70 131 17 41 47 59 97 59 45 0 53 -9 28 -30 -37 -31 1 -80
63 -80 44 0 82 38 82 82 0 85 -102 133 -198 93 -48 -21 -79 -51 -103 -99 -25
-53 -24 -74 8 -136 29 -56 82 -99 148 -120 56 -18 59 -23 40 -73 -15 -40 -15
-47 -1 -81 11 -27 27 -42 58 -56 167 -76 429 91 612 390 24 38 15 31 -60 -46
-121 -124 -180 -168 -310 -230 -86 -42 -121 -54 -158 -54 -92 0 -143 55 -97
104 18 19 36 24 99 29 193 14 382 123 565 326 117 130 235 337 295 517 87 259
83 511 -9 684 -80 150 -244 239 -388 210z"/>
<path d="M11835 8526 c-71 -18 -111 -41 -167 -97 -193 -193 -197 -604 -8 -979
194 -385 481 -634 754 -656 101 -8 114 -11 132 -39 36 -55 -22 -101 -117 -92
-31 3 -67 12 -80 20 -13 9 -44 23 -69 33 -108 42 -242 150 -369 299 l-43 50
26 -45 c51 -89 142 -203 219 -276 173 -163 378 -212 459 -110 22 26 23 94 3
123 -18 26 -10 34 64 58 66 21 120 73 145 139 16 42 17 53 5 90 -7 22 -31 60
-54 83 -47 48 -110 64 -175 44 -71 -21 -103 -100 -62 -151 24 -30 96 -39 122
-15 24 22 26 48 5 65 -25 21 -17 30 26 30 53 0 78 -14 95 -57 14 -31 13 -38
-3 -71 -14 -28 -33 -44 -78 -67 -52 -26 -70 -30 -140 -29 -44 0 -109 8 -145
17 -62 16 -203 80 -244 110 -19 14 -19 14 2 35 35 35 29 75 -19 127 l-42 45
59 0 c72 0 123 22 184 79 44 41 45 41 15 35 -16 -3 -61 -16 -100 -27 -80 -25
-236 -30 -270 -9 -16 10 -7 11 50 6 90 -8 149 8 192 51 59 59 35 129 -54 155
-32 10 -46 9 -76 -4 -20 -8 -37 -19 -37 -23 0 -4 14 -16 31 -25 24 -14 30 -23
27 -45 -4 -40 -40 -55 -120 -50 -106 7 -210 66 -273 157 -16 24 -30 52 -30 64
-1 12 -14 40 -28 61 -77 112 -122 424 -83 570 43 161 159 261 316 273 80 5
134 -10 157 -45 14 -21 14 -26 3 -33 -8 -5 -18 -7 -22 -4 -13 8 -48 -16 -48
-32 0 -21 67 -47 99 -39 36 9 71 44 71 71 0 32 -57 94 -106 115 -55 25 -138
31 -199 15z m20 -1183 c39 -33 109 -85 158 -116 50 -33 92 -68 99 -83 29 -63
-51 -86 -117 -34 -75 59 -245 274 -245 308 0 17 -7 22 105 -75z"/>
<path d="M627 8471 c-32 -29 -33 -31 -27 -87 5 -49 11 -61 39 -85 35 -29 98
-49 154 -49 48 0 129 26 155 50 29 27 29 74 0 94 -35 25 -48 20 -42 -13 12
-60 -43 -103 -131 -104 -117 -1 -177 88 -125 186 11 20 18 37 15 37 -2 0 -19
-13 -38 -29z"/>
<path d="M12149 8461 c26 -50 26 -87 1 -128 -32 -53 -96 -73 -170 -53 -61 17
-94 52 -87 96 6 38 -5 44 -41 18 -22 -15 -28 -47 -16 -79 23 -58 207 -82 291
-37 56 29 76 61 75 119 -1 46 -18 75 -55 95 -17 8 -16 6 2 -31z"/>
<path d="M503 8474 c-3 -8 -1 -20 6 -27 8 -8 11 -7 11 6 0 9 7 17 15 17 8 0
15 5 15 10 0 16 -40 11 -47 -6z"/>
<path d="M12255 8480 c-3 -5 1 -10 9 -10 8 0 16 -8 19 -17 4 -17 4 -17 12 1
11 25 -26 49 -40 26z"/>
<path d="M1020 8384 c0 -9 7 -14 17 -12 25 5 28 28 4 28 -12 0 -21 -6 -21 -16z"/>
<path d="M11743 8388 c2 -7 10 -13 17 -13 7 0 15 6 18 13 2 7 -5 12 -18 12
-13 0 -20 -5 -17 -12z"/>
<path d="M1080 8350 c0 -5 7 -10 15 -10 8 0 15 5 15 10 0 6 -7 10 -15 10 -8 0
-15 -4 -15 -10z"/>
<path d="M11690 8350 c0 -5 7 -10 15 -10 8 0 15 5 15 10 0 6 -7 10 -15 10 -8
0 -15 -4 -15 -10z"/>
<path d="M1120 8300 c0 -5 7 -10 15 -10 8 0 15 5 15 10 0 6 -7 10 -15 10 -8 0
-15 -4 -15 -10z"/>
<path d="M11650 8300 c0 -5 7 -10 15 -10 8 0 15 5 15 10 0 6 -7 10 -15 10 -8
0 -15 -4 -15 -10z"/>
<path d="M1155 8250 c4 -6 11 -8 16 -5 14 9 11 15 -7 15 -8 0 -12 -5 -9 -10z"/>
<path d="M11625 8250 c4 -6 11 -8 16 -5 14 9 11 15 -7 15 -8 0 -12 -5 -9 -10z"/>
<path d="M11772 7654 c-18 -13 -21 -19 -11 -30 6 -8 24 -14 40 -14 33 0 37
-11 12 -35 -12 -13 -27 -16 -57 -12 -37 5 -39 4 -22 -9 26 -19 96 -18 124 2
16 11 22 25 22 50 0 30 -4 37 -35 50 -43 18 -45 18 -73 -2z"/>
<path d="M436 7054 c-22 -22 -20 -50 6 -68 32 -23 42 -20 24 6 -24 33 -20 41
18 34 38 -7 55 6 36 29 -16 20 -65 19 -84 -1z"/>
<path d="M12280 7055 c-18 -21 -2 -37 30 -30 36 8 48 -10 24 -36 -21 -23 -7
-25 24 -3 12 8 22 23 22 33 0 42 -73 68 -100 36z"/>
<path d="M12020 6780 c0 -8 21 -51 45 -95 68 -120 85 -159 97 -225 18 -102 -4
-183 -87 -325 -19 -33 -39 -73 -45 -90 -10 -27 -5 -25 47 26 32 30 91 84 131
118 39 35 72 67 72 71 0 5 -18 -1 -40 -11 -44 -21 -100 -35 -100 -25 0 4 12
25 28 48 24 37 27 50 27 128 0 78 -3 91 -27 128 -16 23 -28 44 -28 48 0 10 56
-4 100 -25 22 -10 40 -16 40 -12 0 5 -37 41 -82 81 -46 40 -104 96 -130 124
-26 28 -48 44 -48 36z"/>
<path d="M759 6763 c-8 -9 -65 -61 -126 -115 -62 -55 -113 -103 -113 -108 0
-4 18 1 40 11 44 21 100 35 100 25 0 -4 -12 -25 -27 -48 -25 -37 -28 -50 -28
-128 0 -78 3 -91 28 -128 15 -23 27 -44 27 -48 0 -10 -56 4 -100 25 -22 10
-40 16 -40 11 0 -4 35 -38 78 -75 42 -37 101 -93 129 -124 29 -31 53 -49 53
-41 0 8 -21 51 -45 95 -67 118 -84 158 -96 221 -18 97 3 190 65 293 33 54 79
151 72 151 -2 0 -10 -7 -17 -17z"/>
<path d="M275 6204 c-16 -9 -38 -26 -47 -38 -22 -26 -23 -94 -3 -123 18 -26
10 -34 -64 -58 -66 -21 -120 -73 -145 -139 -16 -42 -17 -53 -5 -90 7 -22 31
-60 54 -83 47 -48 110 -64 175 -44 111 33 104 181 -8 181 -59 0 -94 -49 -57
-80 25 -21 17 -30 -26 -30 -51 0 -75 13 -94 51 -35 67 22 136 134 165 112 28
275 -6 424 -90 37 -20 67 -39 67 -41 0 -3 -9 -14 -20 -25 -33 -33 -26 -74 21
-125 l42 -45 -54 0 c-82 0 -120 -15 -180 -70 -51 -47 -52 -50 -24 -44 17 3 62
16 100 28 79 24 236 29 270 9 16 -10 7 -11 -50 -6 -90 7 -149 -9 -192 -52 -55
-55 -42 -113 33 -147 49 -21 93 -18 120 9 14 14 12 17 -16 35 -25 14 -31 24
-28 46 4 39 40 54 120 49 106 -7 210 -66 273 -157 16 -24 30 -52 30 -64 1 -11
13 -39 28 -61 79 -120 123 -433 81 -576 -23 -78 -47 -119 -96 -169 -79 -80
-213 -118 -316 -91 -48 13 -86 56 -62 71 8 5 18 7 22 4 13 -8 48 16 48 32 0
21 -67 47 -99 39 -36 -9 -71 -44 -71 -71 0 -27 51 -89 89 -109 14 -7 54 -18
87 -25 115 -23 247 32 325 135 106 141 143 344 103 575 -41 241 -175 511 -358
722 -160 185 -381 308 -554 308 -59 0 -86 11 -102 41 -25 46 24 89 102 89 48
0 220 -73 304 -130 27 -18 98 -83 158 -144 86 -87 103 -101 81 -66 -154 246
-355 407 -522 417 -50 2 -76 -1 -98 -13z m535 -518 c45 -37 139 -146 191 -220
48 -68 57 -86 41 -86 -8 0 -92 68 -142 114 -14 13 -64 49 -113 80 -110 70
-137 122 -75 145 27 10 61 -1 98 -33z"/>
<path d="M12325 6197 c-140 -53 -294 -198 -409 -387 -24 -39 -16 -33 56 42
116 121 184 172 313 234 87 42 122 54 159 54 90 0 137 -47 99 -99 -18 -23 -29
-27 -102 -33 -93 -8 -157 -26 -251 -73 -279 -140 -540 -494 -637 -864 -34
-131 -43 -327 -19 -435 34 -149 124 -279 232 -334 115 -58 259 -44 336 32 37
38 44 73 20 105 -27 36 -69 46 -115 27 -57 -23 -49 -46 26 -70 15 -5 16 -9 7
-27 -19 -34 -75 -51 -155 -47 -178 9 -305 137 -336 337 -22 144 31 414 99 506
16 21 27 46 25 55 -7 25 78 132 133 168 118 79 284 84 292 10 3 -22 -3 -32
-28 -46 -29 -18 -30 -21 -15 -36 26 -26 62 -30 110 -11 157 59 48 221 -137
201 -32 -3 -71 -8 -86 -11 l-27 -6 30 18 c49 29 198 24 309 -10 49 -15 92 -25
95 -22 8 9 -53 66 -94 87 -24 13 -68 23 -108 26 l-67 5 40 43 c46 50 53 91 19
125 -25 25 -24 27 71 78 104 55 203 81 316 81 79 0 97 -3 145 -27 68 -35 98
-86 79 -134 -17 -41 -47 -59 -97 -59 -45 0 -53 9 -28 30 37 31 -1 80 -63 80
-44 0 -82 -38 -82 -82 0 -85 102 -133 198 -93 50 22 81 52 103 103 25 57 24
70 -7 131 -31 59 -75 96 -142 118 -70 23 -72 27 -49 73 18 37 18 44 6 78 -29
77 -145 103 -264 59z m-211 -499 c18 -29 -14 -68 -104 -126 -47 -30 -94 -63
-105 -73 -113 -100 -150 -129 -153 -119 -7 21 90 152 184 248 86 89 92 93 129
90 22 -2 42 -10 49 -20z"/>
<path d="M436 5814 c-47 -46 25 -110 79 -71 28 21 10 39 -31 31 -27 -5 -34 -3
-34 9 0 9 10 23 22 31 l22 16 -21 0 c-12 0 -29 -7 -37 -16z"/>
<path d="M12334 5808 c23 -33 20 -39 -20 -36 -44 4 -57 -17 -21 -33 61 -28
117 33 67 73 -31 25 -44 23 -26 -4z"/>
<path d="M960 5253 c-29 -15 -35 -24 -38 -56 -3 -35 -1 -39 32 -52 34 -14 58
-12 84 8 19 15 -5 37 -39 37 -33 0 -37 11 -12 35 12 13 27 16 57 12 37 -5 39
-4 22 9 -11 8 -25 14 -32 14 -7 0 -18 2 -26 5 -7 3 -29 -3 -48 -12z"/>
<path d="M11761 5259 c-18 -4 -43 -17 -55 -29 l-21 -22 32 16 c41 20 77 20 97
0 24 -23 20 -32 -16 -36 -41 -4 -50 -33 -15 -49 18 -8 32 -7 60 5 35 14 42 27
37 66 -4 37 -63 61 -119 49z"/>
<path d="M1155 4550 c-3 -5 1 -10 10 -10 9 0 13 5 10 10 -3 6 -8 10 -10 10 -2
0 -7 -4 -10 -10z"/>
<path d="M11625 4550 c-3 -5 1 -10 10 -10 9 0 13 5 10 10 -3 6 -8 10 -10 10
-2 0 -7 -4 -10 -10z"/>
<path d="M720 4541 c-87 -28 -119 -64 -124 -136 -2 -41 1 -49 31 -76 19 -16
36 -29 38 -29 3 0 -4 17 -15 37 -25 47 -25 89 0 130 32 53 96 73 170 53 61
-17 94 -52 87 -96 -6 -38 5 -44 41 -18 26 18 30 65 6 89 -43 43 -168 68 -234
46z"/>
<path d="M11935 4541 c-44 -11 -92 -38 -99 -56 -12 -32 -6 -64 16 -79 36 -26
47 -20 41 18 -18 110 208 141 262 36 21 -40 19 -78 -6 -125 l-21 -39 33 26
c31 23 34 31 37 83 3 53 1 58 -32 89 -51 49 -145 67 -231 47z"/>
<path d="M1120 4500 c0 -5 7 -10 15 -10 8 0 15 5 15 10 0 6 -7 10 -15 10 -8 0
-15 -4 -15 -10z"/>
<path d="M11650 4500 c0 -5 7 -10 15 -10 8 0 15 5 15 10 0 6 -7 10 -15 10 -8
0 -15 -4 -15 -10z"/>
<path d="M1086 4463 c-11 -11 -6 -23 9 -23 8 0 15 4 15 9 0 13 -16 22 -24 14z"/>
<path d="M11690 4450 c0 -5 7 -10 15 -10 8 0 15 5 15 10 0 6 -7 10 -15 10 -8
0 -15 -4 -15 -10z"/>
<path d="M1020 4416 c0 -10 9 -16 21 -16 24 0 21 23 -4 28 -10 2 -17 -3 -17
-12z"/>
<path d="M11747 4423 c-13 -12 -7 -23 13 -23 11 0 20 7 20 15 0 15 -21 21 -33
8z"/>
<path d="M508 4354 c-13 -13 -9 -32 9 -38 9 -4 21 -2 27 4 7 7 5 10 -6 10 -9
0 -18 7 -20 16 -2 9 -6 12 -10 8z"/>
<path d="M12280 4346 c0 -9 -7 -16 -15 -16 -8 0 -15 -4 -15 -10 0 -11 11 -13
34 -4 18 7 21 30 6 39 -5 3 -10 -1 -10 -9z"/>
<path d="M925 4111 c-33 -15 -66 -35 -73 -43 -10 -13 -5 -16 44 -21 205 -21
339 -218 405 -592 31 -176 34 -570 6 -740 -42 -255 -90 -410 -244 -790 -200
-493 -260 -715 -279 -1030 l-7 -115 44 0 c60 0 255 25 354 45 201 41 369 93
738 231 335 126 484 176 631 214 223 57 292 65 546 65 217 -1 245 -3 363 -28
232 -50 394 -116 494 -201 58 -50 103 -143 103 -213 0 -29 3 -53 8 -53 10 0
48 58 67 103 19 45 29 42 44 -15 19 -74 27 -74 39 -2 41 247 249 387 597 401
273 11 447 -46 795 -262 209 -130 333 -194 438 -229 278 -93 614 -69 872 62
41 21 145 81 230 134 399 246 671 334 932 299 299 -40 502 -199 524 -410 4
-33 10 -58 14 -56 4 2 15 31 24 64 16 57 16 62 -3 110 -64 170 -205 286 -416
342 -110 30 -360 32 -485 5 -188 -41 -320 -100 -580 -261 -338 -209 -495 -265
-747 -265 -256 0 -424 58 -733 253 -253 158 -376 217 -558 264 -97 25 -123 28
-272 28 -188 -1 -277 -18 -408 -81 -128 -62 -207 -149 -274 -303 l-14 -35 -32
56 c-41 71 -132 156 -219 205 -325 181 -933 213 -1474 77 -170 -43 -278 -81
-594 -209 -396 -161 -569 -212 -815 -238 -96 -11 -125 -11 -134 -2 -28 29 26
355 96 572 22 71 79 223 126 338 156 385 185 466 231 653 62 249 86 472 78
722 -10 289 -60 527 -147 707 -58 118 -133 204 -217 247 -29 14 -54 26 -55 26
-2 -1 -30 -13 -63 -29z"/>
<path d="M824 3956 c-94 -30 -158 -111 -159 -202 0 -38 6 -60 21 -81 42 -56
144 -35 144 30 0 30 -32 60 -53 51 -25 -9 -31 19 -13 55 23 43 70 65 136 65
162 -2 295 -168 341 -424 16 -93 17 -333 0 -462 -35 -275 -87 -434 -159 -483
-44 -30 -66 -31 -92 -5 -30 30 -26 50 10 50 40 0 58 32 35 66 -31 48 -103 19
-119 -48 -9 -39 20 -106 55 -124 38 -19 69 -10 110 32 64 66 65 39 4 -85 -90
-178 -224 -265 -338 -218 -63 27 -70 90 -13 135 32 25 32 36 1 67 -64 65 -175
-15 -175 -126 0 -102 77 -179 179 -179 86 0 159 31 214 92 27 29 56 65 65 81
21 35 36 35 28 0 -11 -48 -155 -325 -209 -403 -61 -88 -95 -110 -133 -86 -57
38 -18 123 105 235 108 97 121 120 44 80 -53 -28 -65 -30 -133 -27 -62 4 -91
12 -168 47 -51 23 -99 41 -107 39 -10 -2 2 -24 38 -73 63 -85 119 -119 185
-112 23 3 45 1 47 -4 3 -4 -10 -29 -29 -54 -39 -50 -51 -96 -42 -152 4 -21 7
-45 8 -54 1 -9 8 -15 15 -12 31 12 9 -30 -37 -69 -114 -98 -250 -158 -360
-158 -136 0 -247 117 -224 236 9 49 48 92 90 100 47 9 62 -7 40 -40 -24 -37
-20 -83 9 -111 84 -85 178 82 115 205 -26 50 -55 70 -105 70 -77 0 -137 -58
-174 -169 -26 -79 -26 -119 -2 -192 41 -122 90 -182 178 -220 28 -12 43 -24
39 -32 -30 -71 -38 -123 -27 -171 29 -126 132 -169 254 -106 135 71 264 245
391 527 76 168 77 183 4 63 -135 -226 -255 -362 -361 -415 -49 -23 -66 -27
-118 -23 -54 4 -59 3 -43 -10 19 -13 65 -12 123 4 36 10 17 -15 -25 -32 -71
-30 -154 -12 -180 37 -18 36 -18 63 1 99 16 31 27 35 114 44 289 29 622 479
795 1075 159 544 156 1069 -6 1373 -85 159 -218 241 -334 204z"/>
<path d="M11837 3954 c-68 -21 -155 -110 -201 -206 -129 -269 -151 -679 -61
-1124 89 -437 313 -920 530 -1140 114 -116 243 -184 350 -184 60 0 81 -12 95
-54 34 -104 -72 -169 -189 -116 -52 24 -49 36 6 21 51 -14 75 -14 97 2 16 12
10 13 -43 9 -52 -4 -69 0 -117 23 -119 58 -263 229 -389 459 -25 47 -48 86
-50 86 -2 0 12 -39 32 -87 58 -147 169 -353 239 -446 167 -223 366 -284 434
-134 24 51 26 143 5 194 -8 19 -15 37 -15 39 0 2 25 15 55 29 98 47 158 141
181 285 7 45 -27 167 -63 221 -61 93 -191 91 -236 -4 -33 -68 -15 -176 34
-211 33 -22 56 -20 84 9 29 28 33 74 9 110 -36 54 38 65 90 13 80 -80 43 -222
-73 -280 -124 -63 -309 -12 -471 130 -46 40 -68 81 -37 69 7 -3 14 3 15 12 1
9 4 33 8 54 9 56 -3 102 -41 152 -19 25 -35 49 -35 55 0 5 21 7 48 4 69 -8
124 24 185 106 27 35 54 68 60 73 29 21 -62 -6 -137 -40 -115 -53 -191 -57
-281 -15 -36 17 -65 28 -65 23 0 -4 45 -51 99 -103 55 -53 107 -111 116 -128
23 -45 16 -91 -17 -109 -25 -14 -29 -14 -55 5 -15 11 -49 51 -76 90 -54 79
-194 354 -202 399 l-6 30 33 -40 c102 -124 171 -165 276 -165 69 0 117 23 149
71 50 76 40 173 -23 229 -43 38 -85 40 -119 5 -31 -31 -31 -42 1 -67 77 -61
29 -149 -80 -148 -38 0 -107 31 -150 66 -69 58 -166 219 -166 275 0 19 5 17
44 -19 51 -47 74 -56 109 -43 57 22 78 137 34 179 -28 27 -68 28 -90 4 -32
-35 -14 -72 35 -72 34 0 37 -21 8 -50 -26 -26 -49 -25 -90 3 -97 66 -157 309
-167 677 -4 181 -3 217 15 304 50 240 177 386 334 386 70 0 112 -19 134 -61
17 -34 12 -64 -10 -56 -8 3 -23 -1 -35 -9 -38 -27 -22 -85 29 -103 41 -14 75
0 100 41 39 64 19 141 -54 214 -72 73 -132 88 -229 58z"/>
<path d="M631 3873 c-27 -32 -46 -60 -41 -63 5 -3 9 -35 9 -72 0 -107 53 -184
143 -209 74 -19 173 16 208 74 37 60 17 167 -30 167 -16 0 -18 -7 -14 -52 4
-41 1 -60 -14 -84 -38 -60 -128 -81 -189 -44 -42 25 -64 70 -70 140 -6 65 8
120 44 168 40 53 8 36 -46 -25z"/>
<path d="M12110 3929 c0 -4 12 -27 26 -52 50 -91 41 -212 -21 -274 -28 -28
-40 -33 -81 -33 -94 0 -151 62 -141 152 7 56 -9 64 -42 22 -48 -61 -15 -159
69 -201 138 -70 283 31 282 197 0 36 4 67 8 70 5 3 -16 32 -45 65 -30 33 -54
57 -55 54z"/>
<path d="M512 3888 c-19 -19 -15 -66 7 -78 31 -16 37 -12 13 11 -23 21 -21 39
4 39 9 0 14 7 12 17 -4 21 -21 26 -36 11z"/>
<path d="M12250 3876 c0 -9 6 -16 14 -16 25 0 28 -18 6 -40 -22 -22 -14 -27
14 -7 26 19 18 71 -11 75 -16 2 -23 -2 -23 -12z"/>
<path d="M1027 3764 c-4 -4 -7 -18 -7 -31 0 -17 6 -23 21 -23 16 0 20 5 17 27
-3 26 -18 39 -31 27z"/>
<path d="M11747 3764 c-4 -4 -7 -18 -7 -31 0 -17 6 -23 21 -23 16 0 20 5 17
27 -3 26 -18 39 -31 27z"/>
<path d="M1084 3685 c-9 -23 14 -45 26 -25 5 8 8 19 7 24 -6 17 -27 18 -33 1z"/>
<path d="M11683 3684 c-8 -21 13 -42 28 -27 13 13 5 43 -11 43 -6 0 -13 -7
-17 -16z"/>
<path d="M1124 3616 c-4 -10 -2 -22 4 -28 8 -8 13 -7 18 6 4 10 2 22 -4 28 -8
8 -13 7 -18 -6z"/>
<path d="M11652 3604 c4 -21 22 -23 26 -1 2 10 -3 17 -13 17 -10 0 -15 -6 -13
-16z"/>
<path d="M1150 3535 c0 -8 7 -15 15 -15 8 0 15 7 15 15 0 8 -7 15 -15 15 -8 0
-15 -7 -15 -15z"/>
<path d="M11622 3534 c4 -21 22 -23 26 -1 2 10 -3 17 -13 17 -10 0 -15 -6 -13
-16z"/>
<path d="M1172 3459 c2 -6 8 -10 13 -10 5 0 11 4 13 10 2 6 -4 11 -13 11 -9 0
-15 -5 -13 -11z"/>
<path d="M11600 3455 c0 -9 5 -15 11 -13 6 2 11 8 11 13 0 5 -5 11 -11 13 -6
2 -11 -4 -11 -13z"/>
<path d="M1190 3380 c0 -5 5 -10 10 -10 6 0 10 5 10 10 0 6 -4 10 -10 10 -5 0
-10 -4 -10 -10z"/>
<path d="M11590 3380 c0 -5 5 -10 10 -10 6 0 10 5 10 10 0 6 -4 10 -10 10 -5
0 -10 -4 -10 -10z"/>
<path d="M446 1719 c-21 -16 -26 -29 -26 -63 0 -62 48 -95 110 -76 24 8 23 8
-7 9 -37 1 -73 31 -73 61 0 22 29 27 47 9 6 -6 16 -8 22 -5 19 12 12 54 -11
70 -29 20 -30 20 -62 -5z"/>
<path d="M12292 1724 c-23 -16 -30 -58 -12 -69 6 -4 17 -1 25 5 8 7 22 10 30
6 40 -15 -5 -75 -57 -77 l-33 -1 30 -9 c59 -17 105 14 105 73 0 28 -7 46 -25
63 -28 29 -33 30 -63 9z"/>
<path d="M12000 1332 c0 -7 29 -92 65 -188 76 -204 92 -266 101 -389 9 -124 3
-130 -120 -121 -126 10 -188 26 -391 101 -98 37 -179 64 -181 62 -3 -2 26 -23
63 -45 37 -22 122 -81 188 -131 66 -50 133 -95 149 -101 l30 -10 -21 22 c-32
36 -75 116 -65 122 5 3 37 -7 73 -22 57 -24 77 -26 184 -27 l120 0 0 120 c-1
107 -3 127 -27 184 -15 36 -25 68 -22 73 8 12 93 -37 123 -70 17 -19 23 -21
18 -9 -4 10 -7 22 -7 27 0 5 -34 54 -75 109 -69 93 -131 185 -183 271 -12 19
-22 29 -22 22z"/>
<path d="M750 1259 c-13 -24 -63 -95 -110 -159 -91 -119 -130 -178 -130 -194
0 -5 10 0 23 11 35 32 115 75 121 65 3 -5 -7 -37 -22 -73 -24 -57 -26 -77 -27
-184 l0 -120 120 0 c107 1 127 3 184 27 36 15 68 25 73 22 11 -7 -37 -92 -69
-121 -13 -13 -22 -23 -19 -23 21 0 76 33 166 100 58 43 145 103 194 134 49 31
84 56 77 56 -6 0 -91 -30 -189 -66 -206 -76 -265 -91 -387 -100 -132 -10 -138
0 -114 186 5 47 24 123 40 170 60 168 100 292 97 302 -2 5 -14 -10 -28 -33z"/>
<path d="M2860 1264 c-501 -60 -1074 -291 -1358 -549 -118 -108 -202 -257
-202 -360 0 -68 -13 -92 -58 -106 -74 -22 -132 26 -132 109 0 46 37 132 49
114 5 -9 14 1 27 30 46 103 236 262 458 383 47 25 86 48 86 50 0 5 -92 -31
-188 -75 -280 -126 -462 -263 -531 -400 -52 -106 -36 -187 48 -230 49 -24 145
-27 198 -5 19 8 37 15 39 15 2 0 15 -25 29 -55 38 -80 100 -130 200 -160 99
-30 108 -31 202 -3 56 16 87 32 120 63 40 36 46 46 50 90 5 61 -18 104 -70
128 -91 44 -227 -2 -227 -76 0 -52 91 -87 131 -51 30 27 53 10 46 -33 -8 -46
-37 -77 -88 -92 -86 -26 -186 25 -229 116 -19 40 -22 60 -18 129 4 67 10 94
41 158 37 78 73 132 131 194 30 32 63 44 53 19 -3 -7 3 -14 12 -15 9 -1 33 -4
54 -8 56 -9 102 3 152 42 48 36 70 37 59 2 -3 -11 -3 -40 1 -65 7 -48 56 -113
104 -138 14 -7 39 -25 55 -40 l29 -27 -7 32 c-3 18 -23 69 -43 114 -34 72 -38
90 -38 161 0 68 4 89 27 133 15 29 24 52 21 52 -4 0 -57 -49 -118 -109 -61
-60 -122 -112 -137 -116 -42 -11 -71 -2 -87 27 -14 25 -14 29 5 55 12 15 47
47 80 70 68 49 365 200 409 208 l30 6 -40 -33 c-88 -72 -132 -125 -150 -178
-36 -107 -14 -200 56 -247 76 -50 173 -40 229 23 38 43 40 85 5 119 -31 31
-42 31 -67 -1 -42 -53 -104 -51 -133 5 -44 86 12 212 131 297 68 49 163 94
196 94 19 0 17 -6 -22 -45 -36 -36 -44 -52 -44 -81 0 -53 41 -84 110 -84 40 0
55 5 72 23 27 28 28 68 4 90 -35 32 -72 14 -72 -35 0 -18 -5 -28 -15 -28 -21
0 -55 36 -55 59 0 32 44 85 95 113 64 36 90 43 265 75 129 24 170 27 370 27
255 1 325 -10 448 -69 134 -64 212 -165 212 -273 0 -66 -23 -118 -62 -138 -37
-19 -56 -13 -60 22 -6 55 -75 58 -103 4 -21 -41 -19 -55 13 -90 57 -64 157
-49 239 35 84 86 92 171 28 281 -117 199 -576 307 -1065 248z"/>
<path d="M4625 1266 c-144 -35 -271 -129 -327 -243 -26 -54 -31 -76 -31 -136
0 -110 52 -204 123 -222 59 -14 103 63 75 131 -22 54 -46 45 -69 -29 -5 -15
-9 -16 -27 -7 -51 28 -65 156 -28 255 49 131 161 213 324 237 96 14 251 -5
380 -46 99 -31 149 -65 175 -116 25 -49 25 -82 2 -103 -26 -24 -32 -21 -32 12
0 16 -6 34 -14 40 -11 10 -17 7 -30 -11 -9 -12 -16 -28 -16 -36 0 -24 29 -70
47 -74 23 -6 69 17 77 37 13 35 6 102 -14 128 -21 27 -26 47 -11 47 5 0 35
-20 68 -44 103 -76 161 -193 150 -303 -7 -63 -20 -83 -54 -83 -16 0 -29 10
-41 30 -9 16 -20 30 -25 30 -4 0 -15 -16 -24 -35 -14 -29 -15 -40 -4 -76 38
-127 158 -115 198 19 14 49 14 68 4 141 -14 99 -19 109 -84 181 -29 32 -44 56
-37 58 21 7 151 -89 248 -184 89 -86 93 -92 90 -129 -2 -22 -10 -42 -20 -49
-30 -18 -69 14 -131 112 -59 92 -82 113 -56 50 24 -57 17 -199 -14 -302 -15
-49 -25 -91 -22 -94 9 -9 55 40 82 86 19 31 27 63 31 113 l5 69 43 -40 c51
-47 91 -53 126 -18 21 21 21 21 35 2 32 -42 84 -158 104 -230 17 -61 20 -98
17 -173 -4 -116 -30 -175 -90 -204 -33 -16 -40 -17 -71 -3 -43 17 -57 42 -57
95 0 43 9 51 30 26 31 -37 80 1 80 63 0 96 -128 112 -175 22 -46 -89 15 -214
122 -249 36 -12 46 -11 84 3 72 28 126 86 149 161 17 53 29 68 45 55 28 -23
76 -30 112 -15 67 28 90 130 54 244 -44 141 -186 298 -376 416 l-60 37 87 -84
c120 -115 172 -184 234 -312 42 -87 54 -121 54 -159 0 -91 -47 -138 -99 -100
-23 18 -27 29 -32 94 -17 206 -126 397 -327 573 -188 164 -434 288 -669 335
-116 24 -305 27 -388 7z"/>
<path d="M7809 1264 c-298 -54 -662 -268 -849 -500 -102 -128 -170 -291 -170
-412 0 -82 -32 -122 -83 -103 -57 22 -61 122 -8 236 76 165 119 224 253 350
l93 87 -60 -37 c-84 -52 -170 -122 -236 -192 -167 -175 -218 -382 -115 -465
26 -22 89 -23 120 -3 29 19 36 11 61 -64 22 -67 76 -123 141 -145 44 -15 52
-15 95 -1 96 32 148 131 120 225 -33 111 -181 104 -181 -8 0 -59 49 -94 80
-57 21 25 30 17 30 -26 0 -53 -14 -78 -56 -95 -70 -29 -131 23 -160 137 -29
111 6 272 90 422 20 37 39 67 41 67 3 0 14 -9 25 -20 33 -33 76 -26 123 21
l42 41 6 -76 c7 -82 27 -121 90 -182 l31 -29 -7 30 c-4 17 -17 62 -29 100 -24
79 -29 236 -9 270 10 16 11 7 6 -50 -7 -90 9 -149 52 -192 42 -42 81 -44 119
-7 39 40 52 91 32 137 -8 20 -19 37 -23 37 -4 0 -16 -14 -25 -31 -14 -24 -23
-30 -45 -27 -40 4 -55 40 -50 118 5 75 32 145 81 205 41 49 110 99 140 100 12
1 40 14 61 28 110 75 408 122 555 87 196 -46 313 -209 285 -395 -8 -58 -47
-104 -70 -85 -8 7 -12 16 -9 21 8 13 -15 49 -32 49 -21 0 -47 -66 -39 -101 9
-39 52 -72 85 -64 35 8 98 80 112 129 6 22 11 68 11 101 -2 273 -331 441 -724
369z m-444 -291 c-36 -43 -95 -122 -130 -176 -64 -96 -98 -126 -130 -114 -23
10 -34 48 -22 81 20 57 288 286 334 286 9 0 -13 -33 -52 -77z"/>
<path d="M9364 1261 c-202 -37 -342 -99 -441 -196 -50 -50 -65 -72 -78 -119
-20 -68 -10 -126 30 -188 54 -82 187 -120 252 -72 56 42 35 144 -30 144 -30 0
-60 -32 -51 -53 9 -25 -19 -31 -55 -13 -68 36 -87 149 -39 241 78 150 260 233
549 251 203 12 598 -48 712 -108 59 -32 107 -86 107 -120 0 -22 -34 -58 -55
-58 -10 0 -15 10 -15 30 0 40 -32 58 -66 35 -48 -31 -19 -103 48 -119 40 -9
106 20 124 56 20 38 11 63 -39 116 -36 36 -38 42 -20 42 39 0 201 -89 251
-138 54 -53 79 -100 88 -164 16 -116 -78 -177 -144 -94 -24 31 -32 32 -66 5
-49 -39 -27 -118 47 -159 51 -29 130 -24 181 11 76 52 95 140 55 257 -17 51
-31 71 -73 107 -28 24 -64 56 -81 70 l-30 26 30 -5 c47 -10 322 -151 405 -209
88 -61 110 -95 86 -133 -37 -55 -123 -17 -231 102 -101 111 -124 124 -84 47
28 -53 31 -64 26 -133 -3 -61 -12 -92 -46 -168 -23 -51 -41 -99 -39 -107 2
-10 24 2 73 38 85 63 119 119 112 185 -3 23 -1 45 4 48 5 3 24 -7 42 -22 60
-51 149 -70 199 -43 16 9 25 6 46 -13 l27 -23 -22 26 c-27 29 -29 39 -9 39 20
0 92 -85 139 -162 128 -212 90 -421 -86 -469 -78 -21 -160 20 -173 87 -9 47 7
62 40 40 37 -24 83 -20 111 9 84 83 -73 174 -201 116 -52 -24 -74 -55 -74
-106 0 -77 58 -137 169 -174 78 -25 105 -26 179 -5 124 36 194 90 233 182 15
35 23 43 37 37 9 -5 41 -14 71 -22 130 -35 244 49 228 168 -21 155 -216 321
-554 473 -168 76 -183 77 -63 4 226 -135 362 -255 415 -361 23 -49 27 -66 23
-118 -4 -54 -3 -59 10 -43 13 19 12 65 -4 123 -10 34 10 19 30 -23 32 -68 15
-155 -35 -182 -36 -18 -63 -18 -99 1 -31 16 -35 27 -44 114 -26 265 -404 567
-947 756 -125 43 -389 109 -529 131 -164 25 -527 29 -656 5z"/>
<path d="M3370 1200 c0 -5 5 -10 10 -10 6 0 10 5 10 10 0 6 -4 10 -10 10 -5 0
-10 -4 -10 -10z"/>
<path d="M9410 1200 c0 -5 5 -10 10 -10 6 0 10 5 10 10 0 6 -4 10 -10 10 -5 0
-10 -4 -10 -10z"/>
<path d="M3442 1189 c2 -6 8 -10 13 -10 5 0 11 4 13 10 2 6 -4 11 -13 11 -9 0
-15 -5 -13 -11z"/>
<path d="M9332 1191 c4 -13 18 -16 19 -4 0 4 -5 9 -11 12 -7 2 -11 -2 -8 -8z"/>
<path d="M3515 1170 c-3 -6 1 -13 10 -16 19 -8 30 0 20 15 -8 14 -22 14 -30 1z"/>
<path d="M4540 1164 c0 -8 5 -12 10 -9 6 4 8 11 5 16 -9 14 -15 11 -15 -7z"/>
<path d="M8245 1171 c-3 -5 -1 -12 5 -16 5 -3 10 1 10 9 0 18 -6 21 -15 7z"/>
<path d="M9250 1165 c0 -8 7 -15 15 -15 8 0 15 7 15 15 0 8 -7 15 -15 15 -8 0
-15 -7 -15 -15z"/>
<path d="M3587 1144 c-9 -10 2 -24 19 -24 8 0 14 7 14 15 0 15 -21 21 -33 9z"/>
<path d="M4490 1135 c0 -8 5 -15 10 -15 6 0 10 7 10 15 0 8 -4 15 -10 15 -5 0
-10 -7 -10 -15z"/>
<path d="M8290 1135 c0 -8 5 -15 10 -15 6 0 10 7 10 15 0 8 -4 15 -10 15 -5 0
-10 -7 -10 -15z"/>
<path d="M9175 1140 c-8 -12 20 -24 35 -15 6 3 8 11 5 16 -8 12 -32 12 -40 -1z"/>
<path d="M3657 1114 c-16 -16 -6 -35 16 -32 12 2 22 10 22 18 0 16 -26 25 -38
14z"/>
<path d="M9105 1110 c-4 -7 -3 -16 3 -22 14 -14 45 -2 40 15 -6 16 -34 21 -43
7z"/>
<path d="M4440 1095 c0 -8 5 -15 10 -15 6 0 10 7 10 15 0 8 -4 15 -10 15 -5 0
-10 -7 -10 -15z"/>
<path d="M8337 1104 c-8 -8 1 -24 14 -24 5 0 9 7 9 15 0 15 -12 20 -23 9z"/>
<path d="M7556 1078 c-23 -38 -27 -76 -12 -113 27 -64 95 -63 117 2 9 28 8 38
-6 59 -13 20 -19 23 -31 13 -8 -6 -14 -24 -14 -40 0 -32 -11 -37 -34 -13 -18
18 -20 51 -6 88 12 32 5 34 -14 4z"/>
<path d="M3710 1040 c0 -17 5 -21 28 -18 16 2 27 9 27 18 0 9 -11 16 -27 18
-23 3 -28 -1 -28 -18z"/>
<path d="M4400 1040 c0 -13 5 -20 13 -17 6 2 12 10 12 17 0 7 -6 15 -12 18 -8
2 -13 -5 -13 -18z"/>
<path d="M8370 1040 c0 -11 7 -20 15 -20 8 0 15 9 15 20 0 11 -7 20 -15 20 -8
0 -15 -9 -15 -20z"/>
<path d="M9035 1050 c-10 -16 4 -30 31 -30 17 0 24 5 24 20 0 15 -7 20 -24 20
-14 0 -28 -4 -31 -10z"/>
<path d="M9095 973 c-34 -9 -65 -35 -65 -54 0 -16 6 -17 48 -12 86 10 152 -47
152 -132 0 -82 -57 -133 -160 -142 -64 -6 -111 6 -165 42 -55 38 -41 12 25
-45 33 -29 60 -47 60 -41 0 7 25 11 68 11 112 1 188 51 213 142 32 122 -71
258 -176 231z"/>
<path d="M3599 947 c-68 -45 -96 -146 -64 -225 35 -83 103 -123 206 -123 42 0
69 -4 69 -10 0 -6 27 13 60 41 34 29 59 54 57 56 -2 3 -25 -7 -50 -22 -91 -50
-212 -41 -274 21 -28 28 -33 40 -33 82 0 93 62 150 152 140 34 -4 48 -3 48 6
-1 55 -108 76 -171 34z"/>
<path d="M4406 948 c-25 -35 -20 -48 13 -42 60 12 103 -43 104 -131 1 -117
-88 -177 -186 -125 -20 11 -37 18 -37 15 0 -2 13 -19 29 -38 29 -32 31 -33 87
-27 49 5 61 11 85 39 29 35 49 98 49 154 0 48 -26 129 -50 155 -27 29 -74 29
-94 0z"/>
<path d="M8301 951 c-75 -75 -63 -271 20 -333 37 -28 114 -30 137 -4 50 57 50
61 5 37 -52 -26 -89 -27 -130 -1 -53 32 -73 96 -53 170 17 61 52 94 96 87 38
-6 44 5 18 41 -19 28 -67 29 -93 3z"/>
<path d="M6075 718 c33 -35 86 -94 118 -131 56 -65 92 -90 63 -44 -18 28 -41
105 -34 113 4 3 25 -7 49 -23 38 -25 51 -28 129 -28 78 0 91 3 128 28 23 15
44 27 48 27 10 0 -4 -56 -25 -100 -10 -22 -16 -40 -12 -40 5 0 41 37 81 83 40
45 96 103 124 129 28 26 44 48 36 48 -8 0 -51 -21 -95 -45 -118 -67 -158 -84
-221 -96 -99 -18 -187 2 -302 70 -37 22 -85 48 -107 57 l-40 16 60 -64z"/>
<path d="M8912 548 c-19 -19 5 -48 38 -48 28 0 60 33 46 47 -3 3 -8 -2 -12
-11 -8 -20 -44 -21 -44 -2 0 20 -15 27 -28 14z"/>
<path d="M1576 516 c-6 -31 -4 -44 12 -65 39 -53 142 -33 142 27 0 34 -16 52
-46 52 -29 0 -39 -16 -24 -35 14 -17 6 -45 -13 -45 -26 0 -50 27 -56 66 l-7
39 -8 -39z"/>
<path d="M3800 542 c0 -44 82 -57 88 -14 2 15 -2 22 -12 22 -9 0 -16 -6 -16
-14 0 -25 -18 -28 -40 -6 -11 11 -20 16 -20 12z"/>
<path d="M4310 530 c0 -24 27 -37 43 -21 8 8 7 11 -6 11 -9 0 -17 7 -17 15 0
8 -4 15 -10 15 -5 0 -10 -9 -10 -20z"/>
<path d="M8470 537 c0 -9 -7 -17 -16 -17 -8 0 -12 -4 -9 -10 10 -16 32 -12 39
7 4 9 2 21 -4 27 -7 7 -10 5 -10 -7z"/>
<path d="M11211 523 c-1 -37 -31 -73 -61 -73 -21 0 -29 34 -10 45 15 10 -8 35
-31 35 -10 0 -26 -12 -35 -26 -16 -24 -16 -27 3 -52 15 -21 30 -28 63 -30 65
-5 100 41 80 107 -8 25 -8 25 -9 -6z"/>
<path d="M5742 518 c-17 -17 -15 -64 4 -82 22 -22 50 -20 68 6 23 33 20 41 -9
22 -28 -18 -35 -10 -32 35 2 27 -13 37 -31 19z"/>
<path d="M7026 521 c-4 -6 -4 -21 0 -34 8 -32 -12 -44 -37 -21 -23 21 -25 7
-3 -24 20 -29 50 -28 70 4 13 19 15 32 8 51 -10 29 -28 40 -38 24z"/>
<path d="M1146 409 c-5 -31 -4 -54 4 -69 16 -30 17 -25 10 50 l-6 65 -8 -46z"/>
</g>
</svg>
