<?xml version="1.0" standalone="no"?>
<!DOCTYPE svg PUBLIC "-//W3C//DTD SVG 20010904//EN"
 "http://www.w3.org/TR/2001/REC-SVG-20010904/DTD/svg10.dtd">
<svg version="1.0" xmlns="http://www.w3.org/2000/svg"
 width="931.000000pt" height="1280.000000pt" viewBox="0 0 931.000000 1280.000000"
 preserveAspectRatio="xMidYMid meet">
<g transform="translate(0.000000,1280.000000) scale(0.100000,-0.100000)"
fill="#000000" stroke="none">
<path d="M9186 12768 c-68 -66 -1859 -2595 -2816 -3978 -1141 -1648 -2050
-3027 -2354 -3572 -34 -62 -36 -69 -19 -74 342 -116 733 -339 1064 -606 60
-48 112 -88 117 -88 21 0 360 605 684 1220 688 1304 1922 3816 3115 6340 119
250 242 511 274 579 33 68 59 130 59 137 0 17 -58 74 -76 74 -8 0 -30 -15 -48
-32z"/>
<path d="M3827 4853 c-14 -32 -48 -113 -76 -180 -78 -187 -232 -532 -411 -918
-466 -1006 -550 -1193 -550 -1222 0 -5 44 -21 98 -36 191 -53 375 -165 506
-309 l65 -72 22 20 c33 30 228 291 585 784 412 568 550 754 778 1048 100 129
181 239 181 245 0 27 -301 259 -493 379 -129 80 -329 186 -442 233 -52 21
-228 85 -236 85 0 0 -13 -26 -27 -57z"/>
<path d="M2376 2390 c-338 -54 -625 -260 -780 -560 -47 -92 -72 -164 -107
-305 -12 -49 -39 -143 -61 -208 -111 -339 -240 -561 -432 -745 -199 -191 -469
-322 -819 -398 -99 -22 -134 -34 -153 -53 -32 -32 -30 -51 9 -89 l33 -32 229
0 c127 0 327 5 445 10 118 6 316 15 440 21 986 46 1619 211 2007 524 185 149
293 311 353 530 33 119 39 347 12 475 -82 394 -380 707 -767 806 -112 29 -306
40 -409 24z"/>
</g>
</svg>
